<?xml version="1.0" encoding="UTF-8"?>
<svg id="Layer_2" data-name="Layer 2" xmlns="http://www.w3.org/2000/svg" viewBox="0 0 150 150">
  <defs>
    <style>
      .cls-1 {
        fill: #0056b3;
      }

      .cls-1, .cls-2 {
        stroke-width: 0px;
      }

      .cls-2 {
        fill: #fff;
      }
    </style>
  </defs>
  <g id="Objects">
    <g>
      <circle class="cls-1" cx="75" cy="75" r="75"/>
      <path class="cls-2" d="m134.69,67.54c-1.44-11.75-6.27-22.45-13.5-31.1.61-1.03.96-2.22.96-3.5,0-3.8-3.08-6.88-6.88-6.88-1.39,0-2.67.41-3.75,1.12-8.73-6.68-19.35-11.02-30.9-12.07-.78-2.94-3.46-5.11-6.64-5.11s-6.02,2.3-6.71,5.37c-11.12,1.46-21.3,5.97-29.65,12.68-1.11-.77-2.46-1.23-3.92-1.23-3.8,0-6.88,3.08-6.88,6.88,0,1.47.47,2.83,1.25,3.95-6.67,8.41-11.13,18.64-12.51,29.82-3.17.61-5.57,3.4-5.57,6.75s2.31,6.04,5.4,6.72c1.15,11.38,5.5,21.82,12.12,30.43-.76,1.11-1.21,2.45-1.21,3.89,0,3.8,3.08,6.88,6.88,6.88,1.35,0,2.61-.39,3.67-1.07,8.48,7.03,18.91,11.76,30.35,13.27.59,3.2,3.39,5.64,6.76,5.64s6.02-2.3,6.71-5.37c11.66-1.08,22.35-5.5,31.13-12.3,1.07.69,2.35,1.09,3.71,1.09,3.8,0,6.88-3.08,6.88-6.88,0-1.29-.36-2.49-.98-3.52,7.37-8.92,12.21-20.01,13.42-32.14,2.96-.77,5.14-3.45,5.14-6.65s-2.27-5.98-5.31-6.69Zm-19.42-27.71c1.41,0,2.72-.43,3.81-1.15,6.65,8.06,11.12,17.98,12.52,28.85-1.86.42-3.44,1.59-4.39,3.18l-17.58-6.59c.02-.19.03-.39.03-.59,0-2.32-1.15-4.37-2.92-5.62l7.69-18.14c.27.03.55.05.83.05Zm-3.71-1.09l-7.64,18.02c-.37-.06-.75-.1-1.14-.1-2.95,0-5.46,1.86-6.44,4.48l-31.79-7.32c0-.47-.05-.93-.14-1.37l45.12-15.71c.53.81,1.22,1.49,2.04,2.01Zm-37.58-14.96c3.36,0,6.15-2.4,6.76-5.58,10.69,1.05,20.51,5.06,28.65,11.21-.63,1.04-1,2.25-1,3.55,0,.31.03.61.07.91l-45.35,15.79c-.36-.47-.78-.88-1.25-1.25l11.9-24.64c.07,0,.15.01.22.01Zm-6.69-5.31c.46,1.95,1.74,3.58,3.46,4.5l-11.66,24.15c-.46-.1-.93-.15-1.42-.15-1.46,0-2.81.46-3.92,1.23l-13.82-11.54c.42-.89.67-1.89.67-2.94,0-1.23-.33-2.39-.9-3.39,7.8-6.22,17.25-10.43,27.59-11.86Zm-43.68,54.28l28.59-14.74c1.25,1.64,3.21,2.71,5.42,2.73l9.8,31.32c-.59.47-1.1,1.04-1.51,1.68l-42.38-17.66c.16-.58.25-1.19.25-1.83,0-.51-.06-1.01-.17-1.5Zm6.75-33.02c.99.56,2.14.88,3.35.88,1.64,0,3.14-.58,4.32-1.53l13.65,11.4c-.57,1-.9,2.16-.9,3.39,0,.47.05.92.14,1.36l-28.64,14.77c-.91-1.15-2.18-2-3.64-2.39,1.34-10.43,5.51-19.99,11.71-27.87Zm2.84,68.67c-1.24,0-2.41.34-3.42.91-6.13-8.06-10.17-17.79-11.3-28.38,1.41-.34,2.65-1.1,3.57-2.15l42.8,17.83c-.03.27-.05.55-.05.83,0,.82.15,1.6.41,2.32l-25.89,12.4c-1.14-2.23-3.45-3.77-6.13-3.77Zm34.15,22.9c-10.65-1.46-20.38-5.87-28.32-12.39.66-1.06,1.05-2.3,1.05-3.64,0-.03,0-.05,0-.08l26.8-12.84c.69.67,1.51,1.19,2.43,1.53l1.6,23.08c-1.73.86-3.04,2.43-3.56,4.33Zm2.85-40.58l-9.59-30.65c1.43-.68,2.59-1.84,3.27-3.27l32.05,7.38c.11,1.15.49,2.21,1.09,3.13l-21.98,24.13c-.99-.56-2.14-.88-3.36-.88-.51,0-1.01.06-1.49.17Zm10.48,40.85c-.7-3.05-3.43-5.33-6.7-5.33-.02,0-.03,0-.05,0l-1.53-21.96c1.64-.17,3.11-.92,4.21-2.04l32.04,14.14c0,.06,0,.12,0,.18,0,1.32.38,2.54,1.02,3.59-8.2,6.27-18.15,10.38-28.98,11.43Zm28.74-18.2l-31.21-13.77c.23-.68.35-1.41.35-2.17,0-1.47-.47-2.84-1.25-3.95l21.92-24.06c1.04.63,2.25.99,3.55.99.29,0,.57-.02.84-.06l8.19,40.4c-1.01.65-1.83,1.55-2.39,2.61Zm9.87-2.57c-1.08-.71-2.38-1.13-3.77-1.13-.27,0-.54.02-.8.05l-8.2-40.42c.89-.58,1.63-1.35,2.17-2.26l17.56,6.59c-.02.2-.03.41-.03.62,0,3.34,2.38,6.12,5.53,6.75-1.2,11.23-5.68,21.49-12.46,29.81Z"/>
    </g>
  </g>
</svg>